<svg xmlns="http://www.w3.org/2000/svg" width="67.787" height="67.787" viewBox="0 0 67.787 67.787">
  <path id="hi" d="M33.894,8A33.894,33.894,0,1,0,67.787,41.894,33.888,33.888,0,0,0,33.894,8ZM44.827,30.96a4.373,4.373,0,1,1-4.373,4.373A4.369,4.369,0,0,1,44.827,30.96Zm-21.867,0a4.373,4.373,0,1,1-4.373,4.373A4.369,4.369,0,0,1,22.96,30.96ZM49.583,54.221a20.416,20.416,0,0,1-31.379,0,2.188,2.188,0,0,1,3.362-2.8,16.058,16.058,0,0,0,24.655,0,2.188,2.188,0,0,1,3.362,2.8Z" transform="translate(0 -8)" fill="#fff"/>
</svg>
