<svg xmlns="http://www.w3.org/2000/svg" width="37.155" height="36.109" viewBox="0 0 37.155 36.109">
  <g id="send" transform="translate(35.317 -0.809) rotate(87)">
    <path id="Tracé_5" data-name="Tracé 5" d="M32.612,12.288a78.244,78.244,0,0,0-11.3-6.7A79.694,79.694,0,0,0,5.24.117a3.471,3.471,0,0,0-4.419,3.8,102.721,102.721,0,0,0,2.1,15.832A72.622,72.622,0,0,0,7.235,31.792c1.081,2.4,3.324,4.117,4.72,3.484a17.238,17.238,0,0,0,2.419-1.357,17.276,17.276,0,0,0,2.782-2.345,4.572,4.572,0,0,1,5.963-.146c2.024,1.478,3.664.544,3.664-2.087V26.187c0-2.63,1.369-4.728,2.964-5.182a9.163,9.163,0,0,0,2.714-1.256,11.643,11.643,0,0,0,2.215-2.034C35.755,16.447,34.751,13.822,32.612,12.288Zm-7.33,16.855c0,.877-.56,1.15-1.252.611l-4.612-2.079a12.174,12.174,0,0,1-2.146-2.288L4.358,4.417c-.495-.724-.358-.845.3-.271L24.081,20.959a3.953,3.953,0,0,1,1.2,2.628v5.557Z" transform="translate(0)" fill="#fbfcff"/>
  </g>
</svg>
