<svg id="sun" xmlns="http://www.w3.org/2000/svg" width="24.989" height="24.989" viewBox="0 0 24.989 24.989">
  <path id="Tracé_1" data-name="Tracé 1" d="M20.824,12.494a8.33,8.33,0,1,1-8.33-8.33A8.33,8.33,0,0,1,20.824,12.494ZM13.553,0H11.436V2.965h2.118Zm8.471,11.436v2.118h2.965V11.436ZM11.436,24.989h2.118V22.024H11.436ZM2.965,11.436H0v2.118H2.965V11.436ZM22.078,4.408l-1.5-1.5-2.1,2.1,1.5,1.5ZM18.484,19.982l2.1,2.1,1.5-1.5-2.1-2.1Zm-15.574.6,1.5,1.5,2.1-2.1-1.5-1.5ZM6.5,5.007l-2.1-2.1-1.5,1.5,2.1,2.1Zm11.71-3.671-1.96-.8L15.13,3.276l1.96.8Zm2.7,15.753,2.743,1.125.8-1.96L21.714,15.13ZM6.775,23.654l1.96.8,1.125-2.743-1.96-.8ZM4.078,7.9,1.335,6.775l-.8,1.96L3.275,9.859ZM21.694,9.793l2.735-1.144-.817-1.954L20.877,7.839Zm-6.5,11.9,1.144,2.735L18.3,23.61l-1.145-2.735Zm-11.9-6.5L.56,16.34l.817,1.954,2.735-1.144Zm6.5-11.9L8.648.559l-1.954.817L7.839,4.111Z" fill="#fbfcff"/>
</svg>
