<svg xmlns="http://www.w3.org/2000/svg" width="230.879" height="293.553" viewBox="0 0 230.879 293.553">
  <g id="tank-svgrepo-com" transform="translate(-85.157 -53.183)">
    <g id="Groupe_72" data-name="Groupe 72">
      <g id="Groupe_69" data-name="Groupe 69">
        <rect id="Rectangle_45" data-name="Rectangle 45" width="63.91" height="150.322" transform="translate(136.687 143.703)" fill="#7996b1"/>
        <rect id="Rectangle_46" data-name="Rectangle 46" width="63.91" height="25.998" transform="translate(136.687 129.702)" fill="#7996b1"/>
        <rect id="Rectangle_47" data-name="Rectangle 47" width="63.91" height="25.946" transform="translate(136.687 294.025)" fill="#7996b1"/>
        <path id="Tracé_116" data-name="Tracé 116" d="M133.052,269.16c0,27.466,30.243,49.731,67.545,49.731V269.16Z" fill="#7996b1"/>
        <path id="Tracé_117" data-name="Tracé 117" d="M200.5,164.353V88.022H183.483V175.5l-46.8,30.649v87.879H200.6V164.291Z" fill="#7996b1"/>
        <rect id="Rectangle_48" data-name="Rectangle 48" width="17.113" height="14.459" transform="translate(183.483 73.562)" fill="#7996b1"/>
        <rect id="Rectangle_49" data-name="Rectangle 49" width="26.776" height="20.3" transform="translate(173.821 53.262)" fill="#7996b1"/>
        <rect id="Rectangle_50" data-name="Rectangle 50" width="51.53" height="194.419" transform="translate(85.157 137.241)" fill="#7996b1"/>
        <rect id="Rectangle_51" data-name="Rectangle 51" width="51.53" height="15.076" transform="translate(85.157 331.66)" fill="#7996b1"/>
        <rect id="Rectangle_52" data-name="Rectangle 52" width="51.53" height="15.078" transform="translate(85.157 122.164)" fill="#7996b1"/>
        <rect id="Rectangle_53" data-name="Rectangle 53" width="63.907" height="150.322" transform="translate(200.599 143.703)" fill="#7996b1"/>
        <rect id="Rectangle_54" data-name="Rectangle 54" width="63.907" height="25.998" transform="translate(200.599 129.702)" fill="#7996b1"/>
        <rect id="Rectangle_55" data-name="Rectangle 55" width="63.907" height="25.946" transform="translate(200.599 294.025)" fill="#7996b1"/>
        <path id="Tracé_118" data-name="Tracé 118" d="M268.144,269.16c0,27.466-30.243,49.731-67.545,49.731V269.16Z" fill="#7996b1"/>
        <rect id="Rectangle_56" data-name="Rectangle 56" width="63.907" height="150.322" transform="translate(200.599 143.703)" fill="#7996b1" opacity="0.26"/>
        <rect id="Rectangle_57" data-name="Rectangle 57" width="63.907" height="25.998" transform="translate(200.599 129.702)" fill="#7996b1" opacity="0.26"/>
        <rect id="Rectangle_58" data-name="Rectangle 58" width="63.907" height="25.946" transform="translate(200.599 294.025)" fill="#7996b1" opacity="0.26"/>
        <path id="Tracé_119" data-name="Tracé 119" d="M268.144,269.16c0,27.466-30.243,49.731-67.545,49.731V269.16Z" fill="#7996b1" opacity="0.26"/>
        <path id="Tracé_120" data-name="Tracé 120" d="M200.693,164.353V88.022h17.016V175.5l46.8,30.649v87.879H200.6V164.291Z" fill="#7996b1"/>
        <rect id="Rectangle_59" data-name="Rectangle 59" width="17.11" height="14.459" transform="translate(200.599 73.562)" fill="#7996b1"/>
        <rect id="Rectangle_60" data-name="Rectangle 60" width="26.775" height="20.3" transform="translate(200.599 53.262)" fill="#7996b1"/>
        <rect id="Rectangle_61" data-name="Rectangle 61" width="17.11" height="14.459" transform="translate(200.599 73.562)" fill="#7996b1" opacity="0.26"/>
        <rect id="Rectangle_62" data-name="Rectangle 62" width="26.775" height="20.3" transform="translate(200.599 53.262)" fill="#7996b1" opacity="0.26"/>
        <path id="Tracé_121" data-name="Tracé 121" d="M200.693,164.353V88.022h17.016V175.5l46.8,30.649v87.879H200.6V164.291Z" fill="#7996b1" opacity="0.26"/>
        <rect id="Rectangle_63" data-name="Rectangle 63" width="51.531" height="194.419" transform="translate(264.506 137.241)" fill="#7996b1"/>
        <rect id="Rectangle_64" data-name="Rectangle 64" width="51.531" height="15.076" transform="translate(264.506 331.66)" fill="#7996b1"/>
        <rect id="Rectangle_65" data-name="Rectangle 65" width="51.531" height="15.078" transform="translate(264.506 122.164)" fill="#7996b1"/>
        <rect id="Rectangle_66" data-name="Rectangle 66" width="51.531" height="194.419" transform="translate(264.506 137.241)" fill="#7996b1" opacity="0.26"/>
        <rect id="Rectangle_67" data-name="Rectangle 67" width="51.531" height="15.076" transform="translate(264.506 331.66)" fill="#7996b1" opacity="0.26"/>
        <rect id="Rectangle_68" data-name="Rectangle 68" width="51.531" height="15.078" transform="translate(264.506 122.164)" fill="#7996b1" opacity="0.26"/>
      </g>
      <rect id="Rectangle_69" data-name="Rectangle 69" width="63.91" height="150.322" transform="translate(136.687 143.703)" fill="#736771"/>
      <rect id="Rectangle_70" data-name="Rectangle 70" width="63.91" height="25.998" transform="translate(136.687 129.702)" fill="#5d505b"/>
      <rect id="Rectangle_71" data-name="Rectangle 71" width="63.91" height="25.946" transform="translate(136.687 294.025)" fill="#5d505b"/>
      <path id="Tracé_122" data-name="Tracé 122" d="M133.052,269.16c0,27.466,30.243,49.731,67.545,49.731V269.16Z" fill="#736771"/>
      <rect id="Rectangle_72" data-name="Rectangle 72" width="17.113" height="14.459" transform="translate(183.483 73.562)" fill="#5d505b"/>
      <rect id="Rectangle_73" data-name="Rectangle 73" width="51.53" height="194.419" transform="translate(85.157 137.241)" fill="#736771"/>
      <rect id="Rectangle_74" data-name="Rectangle 74" width="51.53" height="15.076" transform="translate(85.157 331.66)" fill="#5d505b"/>
      <rect id="Rectangle_75" data-name="Rectangle 75" width="51.53" height="15.078" transform="translate(85.157 122.164)" fill="#fff"/>
      <rect id="Rectangle_76" data-name="Rectangle 76" width="63.907" height="150.322" transform="translate(200.599 143.703)" fill="#736771"/>
      <rect id="Rectangle_77" data-name="Rectangle 77" width="63.907" height="25.998" transform="translate(200.599 129.702)" fill="#5d505b"/>
      <rect id="Rectangle_78" data-name="Rectangle 78" width="63.907" height="25.946" transform="translate(200.599 294.025)" fill="#5d505b"/>
      <path id="Tracé_123" data-name="Tracé 123" d="M268.144,269.16c0,27.466-30.243,49.731-67.545,49.731V269.16Z" fill="#736771"/>
      <g id="Groupe_70" data-name="Groupe 70">
        <path id="Tracé_124" data-name="Tracé 124" d="M200.5,88.022H183.483V175.5l-46.8,30.649v87.879H200.6V164.291l-.1.062Z" fill="#938991"/>
        <path id="Tracé_125" data-name="Tracé 125" d="M217.709,175.5V88.022H200.693v76.331l-.094-.062V294.025h63.907V206.146Z" fill="#938991"/>
      </g>
      <rect id="Rectangle_79" data-name="Rectangle 79" width="17.11" height="14.459" transform="translate(200.599 73.562)" fill="#5d505b"/>
      <g id="Groupe_71" data-name="Groupe 71">
        <rect id="Rectangle_80" data-name="Rectangle 80" width="26.776" height="20.3" transform="translate(173.821 53.262)" fill="#938991"/>
        <rect id="Rectangle_81" data-name="Rectangle 81" width="26.775" height="20.3" transform="translate(200.599 53.262)" fill="#938991"/>
      </g>
      <rect id="Rectangle_82" data-name="Rectangle 82" width="51.531" height="194.419" transform="translate(264.506 137.241)" fill="#736771"/>
      <rect id="Rectangle_83" data-name="Rectangle 83" width="51.531" height="15.076" transform="translate(264.506 331.66)" fill="#5d505b"/>
      <rect id="Rectangle_84" data-name="Rectangle 84" width="51.531" height="15.078" transform="translate(264.506 122.164)" fill="#fff"/>
      <path id="Tracé_126" data-name="Tracé 126" d="M264.5,122.084v7.539h-46.8V73.483h9.665v-20.3H200.6v34.76h.094v41.68H200.6v190.27H264.5v26.764h51.532V122.084Z" fill="#534551" opacity="0.28"/>
    </g>
  </g>
</svg>
