<svg width="231" height="294" viewBox="0 0 231 294" fill="none" xmlns="http://www.w3.org/2000/svg">
<g clip-path="url(#clip0_1_59)">
<path d="M115.44 90.52H51.53V240.842H115.44V90.52Z" fill="#6294C2"/>
<path d="M115.44 76.519H51.53V102.517H115.44V76.519Z" fill="#6294C2"/>
<path d="M115.44 240.842H51.53V266.788H115.44V240.842Z" fill="#6294C2"/>
<path d="M47.895 215.977C47.895 243.443 78.138 265.708 115.44 265.708V215.977H47.895Z" fill="#6294C2"/>
<path d="M115.343 111.17V34.839H98.326V122.317L51.526 152.966V240.845H115.443V111.108L115.343 111.17Z" fill="#6294C2"/>
<path d="M115.439 20.379H98.326V34.838H115.439V20.379Z" fill="#6294C2"/>
<path d="M115.44 0.07901H88.664V20.379H115.44V0.07901Z" fill="#6294C2"/>
<path d="M51.53 84.058H0V278.477H51.53V84.058Z" fill="#6294C2"/>
<path d="M51.53 278.477H0V293.553H51.53V278.477Z" fill="#6294C2"/>
<path d="M51.53 68.981H0V84.059H51.53V68.981Z" fill="#6294C2"/>
<path d="M179.349 90.52H115.442V240.842H179.349V90.52Z" fill="#6294C2"/>
<path d="M179.349 76.519H115.442V102.517H179.349V76.519Z" fill="#6294C2"/>
<path d="M179.349 240.842H115.442V266.788H179.349V240.842Z" fill="#6294C2"/>
<path d="M182.987 215.977C182.987 243.443 152.744 265.708 115.442 265.708V215.977H182.987Z" fill="#6294C2"/>
<path opacity="0.26" d="M179.349 90.52H115.442V240.842H179.349V90.52Z" fill="#6294C2"/>
<path opacity="0.26" d="M179.349 76.519H115.442V102.517H179.349V76.519Z" fill="#6294C2"/>
<path opacity="0.26" d="M179.349 240.842H115.442V266.788H179.349V240.842Z" fill="#6294C2"/>
<path opacity="0.26" d="M182.987 215.977C182.987 243.443 152.744 265.708 115.442 265.708V215.977H182.987Z" fill="#6294C2"/>
<path d="M115.536 111.17V34.839H132.552V122.317L179.352 152.966V240.845H115.443V111.108L115.536 111.17Z" fill="#6294C2"/>
<path d="M132.552 20.379H115.442V34.838H132.552V20.379Z" fill="#6294C2"/>
<path d="M142.217 0.07901H115.442V20.379H142.217V0.07901Z" fill="#6294C2"/>
<path opacity="0.26" d="M132.552 20.379H115.442V34.838H132.552V20.379Z" fill="#6294C2"/>
<path opacity="0.26" d="M142.217 0.07901H115.442V20.379H142.217V0.07901Z" fill="#6294C2"/>
<path opacity="0.26" d="M115.536 111.17V34.839H132.552V122.317L179.352 152.966V240.845H115.443V111.108L115.536 111.17Z" fill="#6294C2"/>
<path d="M230.88 84.058H179.349V278.477H230.88V84.058Z" fill="#6294C2"/>
<path d="M230.88 278.477H179.349V293.553H230.88V278.477Z" fill="#6294C2"/>
<path d="M230.88 68.981H179.349V84.059H230.88V68.981Z" fill="#6294C2"/>
<path opacity="0.26" d="M230.88 84.058H179.349V278.477H230.88V84.058Z" fill="#6294C2"/>
<path opacity="0.26" d="M230.88 278.477H179.349V293.553H230.88V278.477Z" fill="#6294C2"/>
<path opacity="0.26" d="M230.88 68.981H179.349V84.059H230.88V68.981Z" fill="#6294C2"/>
<path d="M115.44 90.52H51.53V240.842H115.44V90.52Z" fill="#434301"/>
<path d="M115.44 76.519H51.53V102.517H115.44V76.519Z" fill="#B1B424"/>
<path d="M115.44 240.842H51.53V266.788H115.44V240.842Z" fill="#B1B424"/>
<path d="M47.895 215.977C47.895 243.443 78.138 265.708 115.44 265.708V215.977H47.895Z" fill="#434301"/>
<path d="M115.439 20.379H98.326V34.838H115.439V20.379Z" fill="#B1B424"/>
<path d="M51.53 84.058H0V278.477H51.53V84.058Z" fill="#434301"/>
<path d="M51.53 278.477H0V293.553H51.53V278.477Z" fill="#B1B424"/>
<path d="M51.53 68.981H0V84.059H51.53V68.981Z" fill="white"/>
<path d="M179.349 90.52H115.442V240.842H179.349V90.52Z" fill="#434301"/>
<path d="M179.349 76.519H115.442V102.517H179.349V76.519Z" fill="#B1B424"/>
<path d="M179.349 240.842H115.442V266.788H179.349V240.842Z" fill="#B1B424"/>
<path d="M182.987 215.977C182.987 243.443 152.744 265.708 115.442 265.708V215.977H182.987Z" fill="#434301"/>
<path d="M115.343 34.839H98.326V122.317L51.526 152.966V240.845H115.443V111.108L115.343 111.17V34.839Z" fill="white"/>
<path d="M132.552 122.317V34.839H115.536V111.17L115.442 111.108V240.842H179.349V152.963L132.552 122.317Z" fill="white"/>
<path d="M132.552 20.379H115.442V34.838H132.552V20.379Z" fill="#B1B424"/>
<path d="M115.44 0.07901H88.664V20.379H115.44V0.07901Z" fill="#474417"/>
<path d="M142.217 0.07901H115.442V20.379H142.217V0.07901Z" fill="#474417"/>
<path d="M230.88 84.058H179.349V278.477H230.88V84.058Z" fill="#434301"/>
<path d="M230.88 278.477H179.349V293.553H230.88V278.477Z" fill="#B1B424"/>
<path d="M230.88 68.981H179.349V84.059H230.88V68.981Z" fill="white"/>
<path opacity="0.28" d="M179.343 68.901V76.44H132.543V20.3H142.208V0H115.443V34.76H115.537V76.44H115.443V266.71H179.343V293.474H230.875V68.901H179.343Z" fill="#534551"/>
</g>
<defs>
<clipPath id="clip0_1_59">
<rect width="230.879" height="293.553" fill="white"/>
</clipPath>
</defs>
</svg>
